<svg width="105" height="80" viewBox="0 0 105 80" fill="none" xmlns="http://www.w3.org/2000/svg">
<path d="M14.336 79.744C13.824 79.744 13.312 79.744 12.8 79.744C12.3733 79.744 11.904 79.7013 11.392 79.616C8.064 79.2747 5.33333 78.1227 3.2 76.16C1.06667 74.1973 -1.54972e-06 71.6373 -1.54972e-06 68.48C-1.54972e-06 64.64 1.45067 61.2267 4.352 58.24C6.912 55.5947 10.1547 53.632 14.08 52.352C18.8587 50.7307 24.192 49.4933 30.08 48.64C27.9467 44.288 26.88 39.4667 26.88 34.176C26.88 23.7653 29.44 15.4027 34.56 9.088C38.9973 3.62667 44.2453 0.896001 50.304 0.896001C54.7413 0.896001 58.4533 2.47467 61.44 5.632C64.4267 8.704 65.92 13.056 65.92 18.688C65.92 24.32 64.1707 30.848 60.672 38.272C59.9893 39.7227 59.2213 41.1307 58.368 42.496C57.6 43.776 56.7467 45.0987 55.808 46.464H61.568C61.9947 46.0373 62.6347 45.2693 63.488 44.16C64.3413 43.0507 65.408 41.6427 66.688 39.936L77.056 25.856C78.2507 24.1493 79.36 22.656 80.384 21.376C81.408 20.0107 82.304 18.8587 83.072 17.92L84.096 11.008C84.2667 9.13067 84.352 8.02133 84.352 7.68C84.352 4.352 83.5413 2.688 81.92 2.688C81.152 2.688 80.256 3.072 79.232 3.84C77.7813 4.77867 76.2453 6.22933 74.624 8.192C73.1733 9.89867 72.32 11.0507 72.064 11.648C71.7227 12.3307 71.3387 12.672 70.912 12.672C70.5707 12.672 70.4 12.4587 70.4 12.032C70.4 11.6907 70.4427 11.4347 70.528 11.264C72.1493 7.59467 74.9653 4.52267 78.976 2.048C80.9387 0.682665 82.816 -2.86102e-06 84.608 -2.86102e-06C87.68 -2.86102e-06 89.216 2.00533 89.216 6.016C89.216 6.95467 89.088 8.78933 88.832 11.52L87.808 22.4C87.3813 27.3493 86.9547 31.744 86.528 35.584C86.1013 39.3387 85.8027 42.5813 85.632 45.312C89.8133 44.9707 92.5013 44.4587 93.696 43.776C94.1227 43.4347 94.5067 43.264 94.848 43.264C95.0187 43.264 95.104 43.392 95.104 43.648C95.104 44.16 94.72 44.672 93.952 45.184C92.0747 46.2933 89.3013 47.1893 85.632 47.872C85.632 48.8107 85.5893 49.7493 85.504 50.688C85.504 51.5413 85.504 52.3947 85.504 53.248C85.504 58.624 85.8453 62.6773 86.528 65.408C87.808 70.9547 89.984 73.728 93.056 73.728C96.7253 73.728 99.968 70.528 102.784 64.128C103.04 63.5307 103.339 63.232 103.68 63.232C104.192 63.232 104.32 63.7013 104.064 64.64C102.869 68.224 100.949 71.0827 98.304 73.216C95.744 75.4347 93.0987 76.544 90.368 76.544C85.0773 76.544 81.8347 72.7467 80.64 65.152C80.384 63.7867 80.2133 62.2933 80.128 60.672C80.0427 58.9653 80 57.088 80 55.04C80 54.1013 80 53.0773 80 51.968C80 50.8587 80.0427 49.7067 80.128 48.512C79.2747 48.5973 77.5253 48.64 74.88 48.64H64.128C61.9093 51.1147 59.5627 53.504 57.088 55.808C54.6987 58.112 52.1813 60.3733 49.536 62.592C49.8773 62.592 50.176 62.6347 50.432 62.72C50.7733 62.72 51.1147 62.72 51.456 62.72C57.6 62.72 63.0613 59.5627 67.84 53.248C67.9253 52.992 68.1387 52.9493 68.48 53.12C68.8213 53.376 68.864 53.632 68.608 53.888C63.488 60.6293 57.6427 64 51.072 64C50.048 64 49.1093 63.9147 48.256 63.744C39.3813 71.0827 31.4453 75.8187 24.448 77.952C22.7413 78.5493 21.0347 78.976 19.328 79.232C17.6213 79.5733 15.9573 79.744 14.336 79.744ZM31.872 48.384C38.8693 47.36 46.2933 46.7627 54.144 46.592C56.192 43.6053 57.9413 40.6187 59.392 37.632C62.6347 30.976 64.256 25.0027 64.256 19.712C64.256 14.6773 62.848 10.5813 60.032 7.424C57.3013 4.18134 53.8027 2.56 49.536 2.56C44.0747 2.56 39.424 5.12 35.584 10.24C31.0613 16.0427 28.8 24.0213 28.8 34.176C28.8 39.296 29.824 44.032 31.872 48.384ZM72.448 45.952C74.752 45.952 77.3973 45.8667 80.384 45.696C80.5547 42.2827 80.8107 38.656 81.152 34.816C81.5787 30.8907 82.1333 26.7093 82.816 22.272C82.4747 22.8693 81.8773 23.8507 81.024 25.216C80.256 26.496 79.1467 28.0747 77.696 29.952L66.432 45.824C68.0533 45.9093 70.0587 45.952 72.448 45.952ZM46.592 61.952L60.032 48.384C58.496 48.2987 56.6613 48.2987 54.528 48.384C52.9067 50.7733 51.1573 52.992 49.28 55.04C47.488 57.088 45.6107 59.0507 43.648 60.928C44.7573 61.3547 45.7387 61.696 46.592 61.952ZM42.368 60.16C46.208 56.576 49.664 52.6933 52.736 48.512C47.104 48.8533 40.6187 49.7067 33.28 51.072C35.7547 55.168 38.784 58.1973 42.368 60.16ZM17.28 76.544C26.1547 76.544 35.5413 72.064 45.44 63.104L42.496 61.952C33.7067 69.5467 25.0027 73.344 16.384 73.344C13.9093 73.344 11.648 73.0453 9.6 72.448C9.344 72.2773 9.216 72.1067 9.216 71.936C9.216 71.424 9.42933 71.2533 9.856 71.424C11.904 71.936 13.952 72.192 16 72.192C24.192 72.192 32.5973 68.5227 41.216 61.184C37.376 59.0507 34.176 55.7653 31.616 51.328C27.6907 52.0107 24.192 52.736 21.12 53.504C18.048 54.272 15.4027 54.9973 13.184 55.68C5.504 58.3253 1.664 62.08 1.664 66.944C1.664 69.4187 2.85867 71.5093 5.248 73.216C7.552 74.9227 10.368 75.9467 13.696 76.288C14.8907 76.4587 16.0853 76.544 17.28 76.544Z" fill="#404040"/>
</svg>
